<?xml version="1.0" encoding="UTF-8" standalone="no"?>
<!DOCTYPE svg PUBLIC "-//W3C//DTD SVG 1.0//EN" "http://www.w3.org/TR/2001/PR-SVG-20010719/DTD/svg10.dtd">
<svg width="30cm" height="22cm" viewBox="541 689 591 434" xmlns="http://www.w3.org/2000/svg" xmlns:xlink="http://www.w3.org/1999/xlink">
  <g>
    <rect style="fill: #ffffff" x="541.782" y="689.437" width="590.984" height="433.988"/>
    <rect style="fill: none; fill-opacity:0; stroke-width: 2.35099e-037; stroke: #ffffff" x="541.782" y="689.437" width="590.984" height="433.988"/>
  </g>
  <g>
    <rect style="fill: #ffffff" x="683.836" y="741.788" width="89.6" height="36"/>
    <rect style="fill: none; fill-opacity:0; stroke-width: 2; stroke: #000000" x="683.836" y="741.788" width="89.6" height="36"/>
    <text font-size="12.7998" style="fill: #000000;text-anchor:middle;font-family:monospace;font-style:normal;font-weight:normal" x="728.636" y="763.788">Clientes</text>
  </g>
  <g>
    <rect style="fill: #ffffff" x="938.303" y="1062.18" width="89.6" height="36"/>
    <rect style="fill: none; fill-opacity:0; stroke-width: 2; stroke: #000000" x="938.303" y="1062.18" width="89.6" height="36"/>
    <text font-size="12.7998" style="fill: #000000;text-anchor:middle;font-family:monospace;font-style:normal;font-weight:normal" x="983.103" y="1084.18">Espacios</text>
  </g>
  <g>
    <rect style="fill: #ffffff" x="939.445" y="899.772" width="89.6" height="36"/>
    <rect style="fill: none; fill-opacity:0; stroke-width: 2; stroke: #000000" x="939.445" y="899.772" width="89.6" height="36"/>
    <text font-size="12.7998" style="fill: #000000;text-anchor:middle;font-family:monospace;font-style:normal;font-weight:normal" x="984.245" y="921.772">Facturas</text>
  </g>
  <text font-size="12.7998" style="fill: #000000;text-anchor:end;font-family:sans-serif;font-style:normal;font-weight:normal" x="649.069" y="715.593">
    <tspan x="649.069" y="715.593">Id_cliente</tspan>
    <tspan x="649.069" y="731.593">Nombre</tspan>
    <tspan x="649.069" y="747.593">Email</tspan>
    <tspan x="649.069" y="763.593">telefono</tspan>
    <tspan x="649.069" y="779.593">contrasenia</tspan>
    <tspan x="649.069" y="795.593">frecuente</tspan>
    <tspan x="649.069" y="811.593">descuento</tspan>
  </text>
  <g>
    <polygon style="fill: #ffffff" points="677.836,836.09 728.636,805.61 779.436,836.09 728.636,866.57 "/>
    <polygon style="fill: none; fill-opacity:0; stroke-width: 2; stroke: #ff0000" points="677.836,836.09 728.636,805.61 779.436,836.09 728.636,866.57 "/>
    <text font-size="12.7998" style="fill: #000000;text-anchor:end;font-family:monospace;font-style:normal;font-weight:normal" x="671.836" y="830.09"></text>
    <text font-size="12.7998" style="fill: #000000;text-anchor:start;font-family:monospace;font-style:normal;font-weight:normal" x="785.436" y="830.09"></text>
    <text font-size="12.7998" style="fill: #000000;text-anchor:middle;font-family:monospace;font-style:normal;font-weight:normal" x="728.636" y="840.09">Realizan</text>
  </g>
  <line style="fill: none; fill-opacity:0; stroke-width: 2; stroke: #000000" x1="728.636" y1="777.788" x2="728.636" y2="805.61"/>
  <text font-size="12.7998" style="fill: #000000;text-anchor:start;font-family:sans-serif;font-style:normal;font-weight:normal" x="1053.67" y="1077.04">
    <tspan x="1053.67" y="1077.04">id_Espacio</tspan>
    <tspan x="1053.67" y="1093.04">Nombre</tspan>
  </text>
  <g>
    <polygon style="fill: #ffffff" points="815.85,1080.18 855.1,1056.63 894.35,1080.18 855.1,1103.73 "/>
    <polygon style="fill: none; fill-opacity:0; stroke-width: 2; stroke: #ff0000" points="815.85,1080.18 855.1,1056.63 894.35,1080.18 855.1,1103.73 "/>
    <text font-size="12.7998" style="fill: #000000;text-anchor:end;font-family:monospace;font-style:normal;font-weight:normal" x="809.85" y="1074.18"></text>
    <text font-size="12.7998" style="fill: #000000;text-anchor:start;font-family:monospace;font-style:normal;font-weight:normal" x="900.35" y="1074.18"></text>
    <text font-size="12.7998" style="fill: #000000;text-anchor:middle;font-family:monospace;font-style:normal;font-weight:normal" x="855.1" y="1084.18">Posee</text>
  </g>
  <g>
    <rect style="fill: #ffffff" x="683.836" y="1062.18" width="89.6" height="36"/>
    <rect style="fill: none; fill-opacity:0; stroke-width: 2; stroke: #000000" x="683.836" y="1062.18" width="89.6" height="36"/>
    <text font-size="12.7998" style="fill: #000000;text-anchor:middle;font-family:monospace;font-style:normal;font-weight:normal" x="728.636" y="1084.18">Asientos</text>
  </g>
  <text font-size="12.7998" style="fill: #000000;text-anchor:end;font-family:sans-serif;font-style:normal;font-weight:normal" x="652.397" y="1067.89">
    <tspan x="652.397" y="1067.89">id_asiento</tspan>
    <tspan x="652.397" y="1083.89">Nombre</tspan>
    <tspan x="652.397" y="1099.89">tarifa</tspan>
  </text>
  <line style="fill: none; fill-opacity:0; stroke-width: 2; stroke: #000000" x1="773.436" y1="1080.18" x2="815.85" y2="1080.18"/>
  <text font-size="12.7998" style="fill: #000000;text-anchor:end;font-family:sans-serif;font-style:normal;font-weight:normal" x="650.003" y="905.525">
    <tspan x="650.003" y="905.525">Id_reserva</tspan>
    <tspan x="650.003" y="921.525">fecha_hora_inicio</tspan>
    <tspan x="650.003" y="937.525">fecha_hora_fin</tspan>
  </text>
  <g>
    <rect style="fill: #ffffff" x="683.836" y="899.772" width="89.6" height="36"/>
    <rect style="fill: none; fill-opacity:0; stroke-width: 2; stroke: #000000" x="683.836" y="899.772" width="89.6" height="36"/>
    <text font-size="12.7998" style="fill: #000000;text-anchor:middle;font-family:monospace;font-style:normal;font-weight:normal" x="728.636" y="921.772">Reservas</text>
  </g>
  <line style="fill: none; fill-opacity:0; stroke-width: 2; stroke: #000000" x1="728.636" y1="866.57" x2="728.636" y2="899.772"/>
  <line style="fill: none; fill-opacity:0; stroke-width: 2; stroke: #000000" x1="728.636" y1="935.772" x2="728.272" y2="974.282"/>
  <g>
    <polygon style="fill: #ffffff" points="685.172,1000.14 728.272,974.282 771.372,1000.14 728.272,1026 "/>
    <polygon style="fill: none; fill-opacity:0; stroke-width: 2; stroke: #ff0000" points="685.172,1000.14 728.272,974.282 771.372,1000.14 728.272,1026 "/>
    <text font-size="12.7998" style="fill: #000000;text-anchor:end;font-family:monospace;font-style:normal;font-weight:normal" x="679.172" y="994.142"></text>
    <text font-size="12.7998" style="fill: #000000;text-anchor:start;font-family:monospace;font-style:normal;font-weight:normal" x="777.372" y="994.142"></text>
    <text font-size="12.7998" style="fill: #000000;text-anchor:middle;font-family:monospace;font-style:normal;font-weight:normal" x="728.272" y="1004.14">Escoge</text>
  </g>
  <text font-size="10.16" style="fill: #000000;text-anchor:start;font-family:monospace;font-style:normal;font-weight:normal" x="895.405" y="1068.65">
    <tspan x="895.405" y="1068.65">(1,1)</tspan>
  </text>
  <text font-size="10.16" style="fill: #000000;text-anchor:start;font-family:monospace;font-style:normal;font-weight:normal" x="735.801" y="798.44">
    <tspan x="735.801" y="798.44">(1,n)</tspan>
  </text>
  <text font-size="10.16" style="fill: #000000;text-anchor:start;font-family:monospace;font-style:normal;font-weight:normal" x="787.199" y="1069.11">
    <tspan x="787.199" y="1069.11">(1,n)</tspan>
  </text>
  <text font-size="12.7998" style="fill: #000000;text-anchor:start;font-family:sans-serif;font-style:normal;font-weight:normal" x="844.512" y="1051.69">
    <tspan x="844.512" y="1051.69">1:M</tspan>
  </text>
  <line style="fill: none; fill-opacity:0; stroke-width: 2; stroke: #000000" x1="894.35" y1="1080.18" x2="938.303" y2="1080.18"/>
  <line style="fill: none; fill-opacity:0; stroke-width: 2; stroke: #000000" x1="728.272" y1="1026" x2="728.636" y2="1062.18"/>
  <text font-size="10.16" style="fill: #000000;text-anchor:start;font-family:monospace;font-style:normal;font-weight:normal" x="734.426" y="882.804">
    <tspan x="734.426" y="882.804">(1,1)</tspan>
  </text>
  <text font-size="12.7998" style="fill: #000000;text-anchor:start;font-family:sans-serif;font-style:normal;font-weight:normal" x="788.529" y="839.362">
    <tspan x="788.529" y="839.362">1:M</tspan>
  </text>
  <text font-size="12.7998" style="fill: #000000;text-anchor:start;font-family:sans-serif;font-style:normal;font-weight:normal" x="1056.96" y="905.76">
    <tspan x="1056.96" y="905.76">Id_factura</tspan>
    <tspan x="1056.96" y="921.76">Precio_total</tspan>
    <tspan x="1056.96" y="937.76">Descuento</tspan>
  </text>
  <g>
    <polygon style="fill: #ffffff" points="809.221,917.772 852.321,891.912 895.421,917.772 852.321,943.632 "/>
    <polygon style="fill: none; fill-opacity:0; stroke-width: 2; stroke: #ff0000" points="809.221,917.772 852.321,891.912 895.421,917.772 852.321,943.632 "/>
    <text font-size="12.7998" style="fill: #000000;text-anchor:end;font-family:monospace;font-style:normal;font-weight:normal" x="803.221" y="911.772"></text>
    <text font-size="12.7998" style="fill: #000000;text-anchor:start;font-family:monospace;font-style:normal;font-weight:normal" x="901.421" y="911.772"></text>
    <text font-size="12.7998" style="fill: #000000;text-anchor:middle;font-family:monospace;font-style:normal;font-weight:normal" x="852.321" y="921.772">Genera</text>
  </g>
  <line style="fill: none; fill-opacity:0; stroke-width: 2; stroke: #000000" x1="773.436" y1="917.772" x2="809.221" y2="917.772"/>
  <line style="fill: none; fill-opacity:0; stroke-width: 2; stroke: #000000" x1="895.421" y1="917.772" x2="939.445" y2="917.772"/>
  <text font-size="12.7998" style="fill: #000000;text-anchor:start;font-family:sans-serif;font-style:normal;font-weight:normal" x="843.624" y="886.625">
    <tspan x="843.624" y="886.625">1:1</tspan>
  </text>
  <text font-size="10.16" style="fill: #000000;text-anchor:start;font-family:monospace;font-style:normal;font-weight:normal" x="784.477" y="909.092">
    <tspan x="784.477" y="909.092">(1,1)</tspan>
  </text>
  <text font-size="10.16" style="fill: #000000;text-anchor:start;font-family:monospace;font-style:normal;font-weight:normal" x="904.604" y="910.467">
    <tspan x="904.604" y="910.467">(1,1)</tspan>
  </text>
  <text font-size="12.7998" style="fill: #000000;text-anchor:start;font-family:sans-serif;font-style:normal;font-weight:normal" x="782.762" y="1003.98">
    <tspan x="782.762" y="1003.98">N:M</tspan>
  </text>
  <text font-size="10.16" style="fill: #000000;text-anchor:start;font-family:monospace;font-style:normal;font-weight:normal" x="738.051" y="959.265">
    <tspan x="738.051" y="959.265">(1,n)</tspan>
  </text>
  <text font-size="10.16" style="fill: #000000;text-anchor:start;font-family:monospace;font-style:normal;font-weight:normal" x="739.142" y="1041.6">
    <tspan x="739.142" y="1041.6">(1,n)</tspan>
  </text>
  <g>
    <polyline style="fill: none; fill-opacity:0; stroke-width: 2; stroke: #000000" points="683.836,759.788 667.568,759.788 667.568,727.412 662.034,727.412 "/>
    <path style="fill: #ffffff" d="M 652.034 727.412 C 652.034,724.912 654.534,722.412 657.034,722.412 C 659.534,722.412 662.034,724.912 662.034,727.412 C 662.034,729.912 659.534,732.412 657.034,732.412 C 654.534,732.412 652.034,729.912 652.034,727.412z"/>
    <path style="fill: none; fill-opacity:0; stroke-width: 2; stroke: #000000" d="M 652.034 727.412 C 652.034,724.912 654.534,722.412 657.034,722.412 C 659.534,722.412 662.034,724.912 662.034,727.412 C 662.034,729.912 659.534,732.412 657.034,732.412 C 654.534,732.412 652.034,729.912 652.034,727.412"/>
  </g>
  <g>
    <polyline style="fill: none; fill-opacity:0; stroke-width: 2; stroke: #000000" points="683.836,759.788 667.244,759.788 667.244,743.947 661.385,743.947 "/>
    <path style="fill: #ffffff" d="M 651.385 743.947 C 651.385,741.447 653.885,738.947 656.385,738.947 C 658.885,738.947 661.385,741.447 661.385,743.947 C 661.385,746.447 658.885,748.947 656.385,748.947 C 653.885,748.947 651.385,746.447 651.385,743.947z"/>
    <path style="fill: none; fill-opacity:0; stroke-width: 2; stroke: #000000" d="M 651.385 743.947 C 651.385,741.447 653.885,738.947 656.385,738.947 C 658.885,738.947 661.385,741.447 661.385,743.947 C 661.385,746.447 658.885,748.947 656.385,748.947 C 653.885,748.947 651.385,746.447 651.385,743.947"/>
  </g>
  <g>
    <polyline style="fill: none; fill-opacity:0; stroke-width: 2; stroke: #000000" points="681.891,759.788 667.568,759.788 667.568,775.719 662.034,775.719 "/>
    <path style="fill: #ffffff" d="M 652.034 775.719 C 652.034,773.219 654.534,770.719 657.034,770.719 C 659.534,770.719 662.034,773.219 662.034,775.719 C 662.034,778.219 659.534,780.719 657.034,780.719 C 654.534,780.719 652.034,778.219 652.034,775.719z"/>
    <path style="fill: none; fill-opacity:0; stroke-width: 2; stroke: #000000" d="M 652.034 775.719 C 652.034,773.219 654.534,770.719 657.034,770.719 C 659.534,770.719 662.034,773.219 662.034,775.719 C 662.034,778.219 659.534,780.719 657.034,780.719 C 654.534,780.719 652.034,778.219 652.034,775.719"/>
  </g>
  <g>
    <polyline style="fill: none; fill-opacity:0; stroke-width: 2; stroke: #000000" points="683.836,759.788 667.435,759.788 667.435,759.833 662.034,759.833 "/>
    <path style="fill: #ffffff" d="M 652.034 759.833 C 652.034,757.333 654.534,754.833 657.034,754.833 C 659.534,754.833 662.034,757.333 662.034,759.833 C 662.034,762.333 659.534,764.833 657.034,764.833 C 654.534,764.833 652.034,762.333 652.034,759.833z"/>
    <path style="fill: none; fill-opacity:0; stroke-width: 2; stroke: #000000" d="M 652.034 759.833 C 652.034,757.333 654.534,754.833 657.034,754.833 C 659.534,754.833 662.034,757.333 662.034,759.833 C 662.034,762.333 659.534,764.833 657.034,764.833 C 654.534,764.833 652.034,762.333 652.034,759.833"/>
  </g>
  <g>
    <polyline style="fill: none; fill-opacity:0; stroke-width: 2; stroke: #000000" points="683.836,759.788 667.568,759.788 667.568,791.929 662.358,791.929 "/>
    <path style="fill: #ffffff" d="M 652.358 791.929 C 652.358,789.429 654.858,786.929 657.358,786.929 C 659.858,786.929 662.358,789.429 662.358,791.929 C 662.358,794.429 659.858,796.929 657.358,796.929 C 654.858,796.929 652.358,794.429 652.358,791.929z"/>
    <path style="fill: none; fill-opacity:0; stroke-width: 2; stroke: #000000" d="M 652.358 791.929 C 652.358,789.429 654.858,786.929 657.358,786.929 C 659.858,786.929 662.358,789.429 662.358,791.929 C 662.358,794.429 659.858,796.929 657.358,796.929 C 654.858,796.929 652.358,794.429 652.358,791.929"/>
  </g>
  <g>
    <polyline style="fill: none; fill-opacity:0; stroke-width: 2; stroke: #000000" points="683.836,759.788 667.568,759.788 667.568,806.843 662.358,806.843 "/>
    <path style="fill: #ffffff" d="M 652.358 806.843 C 652.358,804.343 654.858,801.843 657.358,801.843 C 659.858,801.843 662.358,804.343 662.358,806.843 C 662.358,809.343 659.858,811.843 657.358,811.843 C 654.858,811.843 652.358,809.343 652.358,806.843z"/>
    <path style="fill: none; fill-opacity:0; stroke-width: 2; stroke: #000000" d="M 652.358 806.843 C 652.358,804.343 654.858,801.843 657.358,801.843 C 659.858,801.843 662.358,804.343 662.358,806.843 C 662.358,809.343 659.858,811.843 657.358,811.843 C 654.858,811.843 652.358,809.343 652.358,806.843"/>
  </g>
  <g>
    <polyline style="fill: none; fill-opacity:0; stroke-width: 2; stroke: #000000" points="683.836,917.772 668.57,917.772 668.57,917.721 664.303,917.721 "/>
    <path style="fill: #ffffff" d="M 654.303 917.721 C 654.303,915.221 656.803,912.721 659.303,912.721 C 661.803,912.721 664.303,915.221 664.303,917.721 C 664.303,920.221 661.803,922.721 659.303,922.721 C 656.803,922.721 654.303,920.221 654.303,917.721z"/>
    <path style="fill: none; fill-opacity:0; stroke-width: 2; stroke: #000000" d="M 654.303 917.721 C 654.303,915.221 656.803,912.721 659.303,912.721 C 661.803,912.721 664.303,915.221 664.303,917.721 C 664.303,920.221 661.803,922.721 659.303,922.721 C 656.803,922.721 654.303,920.221 654.303,917.721"/>
  </g>
  <g>
    <polyline style="fill: none; fill-opacity:0; stroke-width: 2; stroke: #000000" points="682.83,917.772 668.229,917.772 668.229,932.959 664.628,932.959 "/>
    <path style="fill: #ffffff" d="M 654.628 932.959 C 654.628,930.459 657.128,927.959 659.628,927.959 C 662.128,927.959 664.628,930.459 664.628,932.959 C 664.628,935.459 662.128,937.959 659.628,937.959 C 657.128,937.959 654.628,935.459 654.628,932.959z"/>
    <path style="fill: none; fill-opacity:0; stroke-width: 2; stroke: #000000" d="M 654.628 932.959 C 654.628,930.459 657.128,927.959 659.628,927.959 C 662.128,927.959 664.628,930.459 664.628,932.959 C 664.628,935.459 662.128,937.959 659.628,937.959 C 657.128,937.959 654.628,935.459 654.628,932.959"/>
  </g>
  <g>
    <polyline style="fill: none; fill-opacity:0; stroke-width: 2; stroke: #000000" points="683.836,1080.18 669.218,1080.18 669.218,1095.06 665.6,1095.06 "/>
    <path style="fill: #ffffff" d="M 655.6 1095.06 C 655.6,1092.56 658.1,1090.06 660.6,1090.06 C 663.1,1090.06 665.6,1092.56 665.6,1095.06 C 665.6,1097.56 663.1,1100.06 660.6,1100.06 C 658.1,1100.06 655.6,1097.56 655.6,1095.06z"/>
    <path style="fill: none; fill-opacity:0; stroke-width: 2; stroke: #000000" d="M 655.6 1095.06 C 655.6,1092.56 658.1,1090.06 660.6,1090.06 C 663.1,1090.06 665.6,1092.56 665.6,1095.06 C 665.6,1097.56 663.1,1100.06 660.6,1100.06 C 658.1,1100.06 655.6,1097.56 655.6,1095.06"/>
  </g>
  <g>
    <polyline style="fill: none; fill-opacity:0; stroke-width: 2; stroke: #000000" points="683.836,1080.18 669.218,1080.18 669.218,1080.15 665.6,1080.15 "/>
    <path style="fill: #ffffff" d="M 655.6 1080.15 C 655.6,1077.65 658.1,1075.15 660.6,1075.15 C 663.1,1075.15 665.6,1077.65 665.6,1080.15 C 665.6,1082.65 663.1,1085.15 660.6,1085.15 C 658.1,1085.15 655.6,1082.65 655.6,1080.15z"/>
    <path style="fill: none; fill-opacity:0; stroke-width: 2; stroke: #000000" d="M 655.6 1080.15 C 655.6,1077.65 658.1,1075.15 660.6,1075.15 C 663.1,1075.15 665.6,1077.65 665.6,1080.15 C 665.6,1082.65 663.1,1085.15 660.6,1085.15 C 658.1,1085.15 655.6,1082.65 655.6,1080.15"/>
  </g>
  <g>
    <polyline style="fill: none; fill-opacity:0; stroke-width: 2; stroke: #000000" points="1027.9,1080.18 1035.18,1080.18 1035.18,1088.63 1040.09,1088.63 "/>
    <path style="fill: #ffffff" d="M 1050.09 1088.63 C 1050.09,1091.13 1047.59,1093.63 1045.09,1093.63 C 1042.59,1093.63 1040.09,1091.13 1040.09,1088.63 C 1040.09,1086.13 1042.59,1083.63 1045.09,1083.63 C 1047.59,1083.63 1050.09,1086.13 1050.09,1088.63z"/>
    <path style="fill: none; fill-opacity:0; stroke-width: 2; stroke: #000000" d="M 1050.09 1088.63 C 1050.09,1091.13 1047.59,1093.63 1045.09,1093.63 C 1042.59,1093.63 1040.09,1091.13 1040.09,1088.63 C 1040.09,1086.13 1042.59,1083.63 1045.09,1083.63 C 1047.59,1083.63 1050.09,1086.13 1050.09,1088.63"/>
  </g>
  <g>
    <polyline style="fill: none; fill-opacity:0; stroke-width: 2; stroke: #000000" points="1029.05,917.772 1037.65,917.772 1037.65,933.275 1044.73,933.275 "/>
    <path style="fill: #ffffff" d="M 1054.73 933.275 C 1054.73,935.775 1052.23,938.275 1049.73,938.275 C 1047.23,938.275 1044.73,935.775 1044.73,933.275 C 1044.73,930.775 1047.23,928.275 1049.73,928.275 C 1052.23,928.275 1054.73,930.775 1054.73,933.275z"/>
    <path style="fill: none; fill-opacity:0; stroke-width: 2; stroke: #000000" d="M 1054.73 933.275 C 1054.73,935.775 1052.23,938.275 1049.73,938.275 C 1047.23,938.275 1044.73,935.775 1044.73,933.275 C 1044.73,930.775 1047.23,928.275 1049.73,928.275 C 1052.23,928.275 1054.73,930.775 1054.73,933.275"/>
  </g>
  <g>
    <polyline style="fill: none; fill-opacity:0; stroke-width: 2; stroke: #000000" points="1029.05,917.772 1042.34,917.772 1042.34,917.824 1044.63,917.824 "/>
    <path style="fill: #ffffff" d="M 1054.63 917.824 C 1054.63,920.324 1052.13,922.824 1049.63,922.824 C 1047.13,922.824 1044.63,920.324 1044.63,917.824 C 1044.63,915.324 1047.13,912.824 1049.63,912.824 C 1052.13,912.824 1054.63,915.324 1054.63,917.824z"/>
    <path style="fill: none; fill-opacity:0; stroke-width: 2; stroke: #000000" d="M 1054.63 917.824 C 1054.63,920.324 1052.13,922.824 1049.63,922.824 C 1047.13,922.824 1044.63,920.324 1044.63,917.824 C 1044.63,915.324 1047.13,912.824 1049.63,912.824 C 1052.13,912.824 1054.63,915.324 1054.63,917.824"/>
  </g>
  <g>
    <polyline style="fill: none; fill-opacity:0; stroke-width: 2; stroke: #000000" points="683.836,759.788 667.754,759.788 667.754,711.775 652.332,711.775 "/>
    <path style="fill: #000000" d="M 652.332 711.775 C 652.332,709.275 654.832,706.775 657.332,706.775 C 659.832,706.775 662.332,709.275 662.332,711.775 C 662.332,714.275 659.832,716.775 657.332,716.775 C 654.832,716.775 652.332,714.275 652.332,711.775z"/>
    <path style="fill: none; fill-opacity:0; stroke-width: 2; stroke: #000000" d="M 652.332 711.775 C 652.332,709.275 654.832,706.775 657.332,706.775 C 659.832,706.775 662.332,709.275 662.332,711.775 C 662.332,714.275 659.832,716.775 657.332,716.775 C 654.832,716.775 652.332,714.275 652.332,711.775"/>
  </g>
  <g>
    <polyline style="fill: none; fill-opacity:0; stroke-width: 2; stroke: #000000" points="683.836,917.772 668.225,917.772 668.225,901.592 654.225,901.592 "/>
    <path style="fill: #000000" d="M 654.225 901.592 C 654.225,899.092 656.725,896.592 659.225,896.592 C 661.725,896.592 664.225,899.092 664.225,901.592 C 664.225,904.092 661.725,906.592 659.225,906.592 C 656.725,906.592 654.225,904.092 654.225,901.592z"/>
    <path style="fill: none; fill-opacity:0; stroke-width: 2; stroke: #000000" d="M 654.225 901.592 C 654.225,899.092 656.725,896.592 659.225,896.592 C 661.725,896.592 664.225,899.092 664.225,901.592 C 664.225,904.092 661.725,906.592 659.225,906.592 C 656.725,906.592 654.225,904.092 654.225,901.592"/>
  </g>
  <g>
    <polyline style="fill: none; fill-opacity:0; stroke-width: 2; stroke: #000000" points="683.836,1080.18 668.818,1080.18 668.818,1064.78 655.207,1064.78 "/>
    <path style="fill: #000000" d="M 655.207 1064.78 C 655.207,1062.28 657.707,1059.78 660.207,1059.78 C 662.707,1059.78 665.207,1062.28 665.207,1064.78 C 665.207,1067.28 662.707,1069.78 660.207,1069.78 C 657.707,1069.78 655.207,1067.28 655.207,1064.78z"/>
    <path style="fill: none; fill-opacity:0; stroke-width: 2; stroke: #000000" d="M 655.207 1064.78 C 655.207,1062.28 657.707,1059.78 660.207,1059.78 C 662.707,1059.78 665.207,1062.28 665.207,1064.78 C 665.207,1067.28 662.707,1069.78 660.207,1069.78 C 657.707,1069.78 655.207,1067.28 655.207,1064.78"/>
  </g>
  <g>
    <polyline style="fill: none; fill-opacity:0; stroke-width: 2; stroke: #000000" points="1030.04,917.772 1037.7,917.772 1037.7,901.964 1054.23,901.964 "/>
    <path style="fill: #000000" d="M 1054.23 901.964 C 1054.23,904.464 1051.73,906.964 1049.23,906.964 C 1046.73,906.964 1044.23,904.464 1044.23,901.964 C 1044.23,899.464 1046.73,896.964 1049.23,896.964 C 1051.73,896.964 1054.23,899.464 1054.23,901.964z"/>
    <path style="fill: none; fill-opacity:0; stroke-width: 2; stroke: #000000" d="M 1054.23 901.964 C 1054.23,904.464 1051.73,906.964 1049.23,906.964 C 1046.73,906.964 1044.23,904.464 1044.23,901.964 C 1044.23,899.464 1046.73,896.964 1049.23,896.964 C 1051.73,896.964 1054.23,899.464 1054.23,901.964"/>
  </g>
  <g>
    <polyline style="fill: none; fill-opacity:0; stroke-width: 2; stroke: #000000" points="1028.89,1080.18 1035.16,1080.18 1035.16,1072.54 1050.29,1072.54 "/>
    <path style="fill: #000000" d="M 1050.29 1072.54 C 1050.29,1075.04 1047.79,1077.54 1045.29,1077.54 C 1042.79,1077.54 1040.29,1075.04 1040.29,1072.54 C 1040.29,1070.04 1042.79,1067.54 1045.29,1067.54 C 1047.79,1067.54 1050.29,1070.04 1050.29,1072.54z"/>
    <path style="fill: none; fill-opacity:0; stroke-width: 2; stroke: #000000" d="M 1050.29 1072.54 C 1050.29,1075.04 1047.79,1077.54 1045.29,1077.54 C 1042.79,1077.54 1040.29,1075.04 1040.29,1072.54 C 1040.29,1070.04 1042.79,1067.54 1045.29,1067.54 C 1047.79,1067.54 1050.29,1070.04 1050.29,1072.54"/>
  </g>
</svg>
